<?xml version="1.0" encoding="UTF-8"?>
<svg version="1.2" baseProfile="tiny" viewBox="0 0 12500 22000" preserveAspectRatio="xMidYMid" fill-rule="evenodd" stroke-width="28.222" stroke-linejoin="round" xmlns="http://www.w3.org/2000/svg" xmlns:ooo="http://xml.openoffice.org/svg/export" xmlns:xlink="http://www.w3.org/1999/xlink" xml:space="preserve">
 <defs class="ClipPathGroup">
  <clipPath id="presentation_clip_path" clipPathUnits="userSpaceOnUse">
   <rect x="0" y="0" width="12500" height="22000"/>
  </clipPath>
 </defs>
 <defs class="TextShapeIndex">
  <g ooo:slide="id1" ooo:id-list="id3 id4 id5 id6 id7 id8 id9 id10 id11 id12 id13 id14 id15 id16 id17 id18 id19 id20 id21 id22 id23 id24 id25 id26 id27 id28 id29 id30 id31 id32 id33 id34 id35 id36 id37 id38 id39 id40 id41 id42 id43 id44 id45 id46 id47 id48 id49 id50 id51 id52 id53 id54 id55 id56 id57 id58 id59 id60 id61 id62 id63 id64 id65 id66 id67 id68 id69 id70 id71 id72 id73 id74 id75 id76 id77 id78 id79 id80 id81 id82 id83 id84 id85 id86 id87 id88 id89 id90 id91 id92 id93 id94 id95 id96 id97 id98 id99 id100 id101 id102 id103 id104 id105 id106 id107 id108 id109 id110 id111 id112 id113"/>
 </defs>
 <defs class="EmbeddedBulletChars">
  <g id="bullet-char-template(57356)" transform="scale(0.00048828125,-0.00048828125)">
   <path d="M 580,1141 L 1163,571 580,0 -4,571 580,1141 Z"/>
  </g>
  <g id="bullet-char-template(57354)" transform="scale(0.00048828125,-0.00048828125)">
   <path d="M 8,1128 L 1137,1128 1137,0 8,0 8,1128 Z"/>
  </g>
  <g id="bullet-char-template(10146)" transform="scale(0.00048828125,-0.00048828125)">
   <path d="M 174,0 L 602,739 174,1481 1456,739 174,0 Z M 1358,739 L 309,1346 659,739 1358,739 Z"/>
  </g>
  <g id="bullet-char-template(10132)" transform="scale(0.00048828125,-0.00048828125)">
   <path d="M 2015,739 L 1276,0 717,0 1260,543 174,543 174,936 1260,936 717,1481 1274,1481 2015,739 Z"/>
  </g>
  <g id="bullet-char-template(10007)" transform="scale(0.00048828125,-0.00048828125)">
   <path d="M 0,-2 C -7,14 -16,27 -25,37 L 356,567 C 262,823 215,952 215,954 215,979 228,992 255,992 264,992 276,990 289,987 310,991 331,999 354,1012 L 381,999 492,748 772,1049 836,1024 860,1049 C 881,1039 901,1025 922,1006 886,937 835,863 770,784 769,783 710,716 594,584 L 774,223 C 774,196 753,168 711,139 L 727,119 C 717,90 699,76 672,76 641,76 570,178 457,381 L 164,-76 C 142,-110 111,-127 72,-127 30,-127 9,-110 8,-76 1,-67 -2,-52 -2,-32 -2,-23 -1,-13 0,-2 Z"/>
  </g>
  <g id="bullet-char-template(10004)" transform="scale(0.00048828125,-0.00048828125)">
   <path d="M 285,-33 C 182,-33 111,30 74,156 52,228 41,333 41,471 41,549 55,616 82,672 116,743 169,778 240,778 293,778 328,747 346,684 L 369,508 C 377,444 397,411 428,410 L 1163,1116 C 1174,1127 1196,1133 1229,1133 1271,1133 1292,1118 1292,1087 L 1292,965 C 1292,929 1282,901 1262,881 L 442,47 C 390,-6 338,-33 285,-33 Z"/>
  </g>
  <g id="bullet-char-template(9679)" transform="scale(0.00048828125,-0.00048828125)">
   <path d="M 813,0 C 632,0 489,54 383,161 276,268 223,411 223,592 223,773 276,916 383,1023 489,1130 632,1184 813,1184 992,1184 1136,1130 1245,1023 1353,916 1407,772 1407,592 1407,412 1353,268 1245,161 1136,54 992,0 813,0 Z"/>
  </g>
  <g id="bullet-char-template(8226)" transform="scale(0.00048828125,-0.00048828125)">
   <path d="M 346,457 C 273,457 209,483 155,535 101,586 74,649 74,723 74,796 101,859 155,911 209,963 273,989 346,989 419,989 480,963 531,910 582,859 608,796 608,723 608,648 583,586 532,535 482,483 420,457 346,457 Z"/>
  </g>
  <g id="bullet-char-template(8211)" transform="scale(0.00048828125,-0.00048828125)">
   <path d="M -4,459 L 1135,459 1135,606 -4,606 -4,459 Z"/>
  </g>
 </defs>
 <defs class="TextEmbeddedBitmaps"/>
 <g>
  <g id="id2" class="Master_Slide">
   <g id="bg-id2" class="Background"/>
   <g id="bo-id2" class="BackgroundObjects"/>
  </g>
 </g>
 <g class="SlideGroup">
  <g>
   <g id="id1" class="Slide" clip-path="url(#presentation_clip_path)">
    <g class="Page">
     <g class="Group">
      <g class="com.sun.star.drawing.ClosedBezierShape">
       <g id="id3">
        <path fill="rgb(198,196,255)" stroke="none" d="M 0,22000 C 0,14667 0,7333 0,0 4167,0 8333,0 12500,0 12500,7333 12500,14667 12500,22000 8333,22000 4167,22000 0,22000 Z"/>
        <path fill="none" stroke="rgb(0,0,0)" stroke-width="50" stroke-linejoin="round" d="M 0,22000 C 0,14667 0,7333 0,0 4167,0 8333,0 12500,0 12500,7333 12500,14667 12500,22000 8333,22000 4167,22000 0,22000 Z"/>
       </g>
      </g>
      <g class="com.sun.star.drawing.ClosedBezierShape">
       <g id="id4">
        <path fill="rgb(0,0,0)" stroke="none" d="M 561,1359 L 699,1359 699,1133 845,1133 C 897,1132 939,1122 971,1103 1003,1084 1027,1059 1041,1029 1056,998 1063,966 1063,931 1063,896 1056,864 1041,833 1027,803 1003,778 971,759 939,740 897,730 845,729 L 561,729 561,1359 Z M 699,837 L 807,837 C 840,836 869,841 892,854 916,866 928,892 929,931 928,970 916,996 892,1008 869,1021 840,1026 807,1025 L 699,1025 699,837 Z"/>
       </g>
      </g>
      <g class="com.sun.star.drawing.ClosedBezierShape">
       <g id="id5">
        <path fill="rgb(0,0,0)" stroke="none" d="M 1149,1359 C 1192,1359 1236,1359 1279,1359 1279,1218 1279,1078 1279,937 1279,937 1280,937 1281,937 1368,1078 1455,1218 1542,1359 1589,1359 1635,1359 1681,1359 1681,1149 1681,939 1681,729 1638,729 1594,729 1551,729 1551,870 1551,1011 1551,1152 1551,1152 1550,1152 1549,1152 1462,1011 1374,870 1287,729 1241,729 1195,729 1149,729 1149,939 1149,1149 1149,1359 Z"/>
       </g>
      </g>
      <g class="com.sun.star.drawing.ClosedBezierShape">
       <g id="id6">
        <path fill="rgb(0,0,0)" stroke="none" d="M 2270,1359 L 2358,1359 2358,1019 2094,1019 2094,1122 2233,1122 C 2229,1166 2214,1200 2189,1223 2163,1246 2128,1258 2083,1258 2042,1257 2009,1247 1983,1227 1958,1206 1940,1180 1929,1148 1917,1116 1912,1082 1912,1047 1912,1009 1917,974 1929,941 1940,909 1958,882 1983,862 2009,841 2042,831 2083,830 2116,830 2145,839 2168,857 2192,875 2208,901 2216,936 L 2348,936 C 2343,888 2327,848 2301,815 2276,782 2244,757 2206,740 2168,723 2127,714 2083,714 2018,715 1962,730 1916,759 1870,788 1835,827 1811,877 1787,927 1774,984 1774,1047 1774,1108 1787,1163 1811,1212 1835,1262 1870,1301 1916,1330 1962,1358 2018,1373 2083,1374 2114,1374 2144,1368 2174,1354 2204,1341 2231,1319 2256,1288 L 2270,1359 Z"/>
       </g>
      </g>
     </g>
     <g class="Group">
      <g class="com.sun.star.drawing.ClosedBezierShape">
       <g id="id7">
        <path fill="rgb(225,224,255)" stroke="none" d="M 1000,3000 C 1000,2667 1000,2333 1000,2000 4500,2000 8000,2000 11500,2000 11500,2333 11500,2667 11500,3000 8000,3000 4500,3000 1000,3000 Z"/>
        <path fill="none" stroke="rgb(0,0,0)" stroke-width="50" stroke-linejoin="round" d="M 1000,3000 C 1000,2667 1000,2333 1000,2000 4500,2000 8000,2000 11500,2000 11500,2333 11500,2667 11500,3000 8000,3000 4500,3000 1000,3000 Z"/>
       </g>
      </g>
      <g class="com.sun.star.drawing.ClosedBezierShape">
       <g id="id8">
        <path fill="rgb(0,0,0)" stroke="none" d="M 1342,2704 C 1358,2704 1374,2704 1390,2704 1390,2599 1390,2494 1390,2390 1390,2390 1391,2390 1391,2390 1430,2494 1470,2599 1509,2704 1523,2704 1538,2704 1552,2704 1591,2599 1631,2494 1670,2389 1670,2389 1671,2389 1671,2389 1671,2494 1671,2599 1671,2704 1687,2704 1703,2704 1719,2704 1719,2578 1719,2452 1719,2326 1696,2326 1673,2326 1650,2326 1610,2432 1570,2538 1530,2644 1491,2538 1451,2432 1411,2326 1388,2326 1365,2326 1342,2326 1342,2452 1342,2578 1342,2704 Z"/>
       </g>
      </g>
      <g class="com.sun.star.drawing.ClosedBezierShape">
       <g id="id9">
        <path fill="rgb(0,0,0)" stroke="none" d="M 1964,2609 C 1964,2622 1958,2635 1945,2649 1931,2662 1910,2669 1881,2670 1866,2670 1854,2667 1844,2661 1834,2655 1828,2645 1828,2630 1828,2614 1834,2602 1844,2595 1855,2588 1868,2584 1883,2581 1898,2579 1913,2577 1928,2575 1943,2573 1955,2569 1964,2563 L 1964,2609 Z M 2037,2668 C 2034,2669 2032,2669 2029,2670 2027,2670 2025,2670 2023,2670 2016,2670 2012,2668 2011,2663 2009,2658 2009,2650 2009,2640 L 2009,2500 C 2008,2469 1997,2449 1976,2439 1955,2429 1932,2424 1907,2425 1875,2425 1849,2432 1827,2446 1805,2460 1793,2483 1791,2517 L 1836,2517 C 1837,2497 1844,2483 1857,2476 1869,2468 1885,2464 1904,2465 1919,2464 1933,2467 1945,2473 1957,2479 1964,2491 1965,2510 1964,2526 1955,2536 1937,2540 1920,2543 1898,2547 1873,2551 1849,2553 1827,2560 1809,2571 1791,2583 1781,2603 1780,2633 1781,2660 1790,2680 1807,2692 1824,2704 1845,2710 1871,2710 1890,2710 1907,2706 1924,2700 1940,2693 1954,2682 1967,2668 1967,2682 1970,2693 1977,2700 1984,2707 1993,2710 2005,2710 2012,2710 2018,2709 2023,2708 2028,2707 2033,2705 2037,2702 L 2037,2668 Z"/>
       </g>
      </g>
      <g class="com.sun.star.drawing.ClosedBezierShape">
       <g id="id10">
        <path fill="rgb(0,0,0)" stroke="none" d="M 2189,2667 C 2160,2666 2140,2655 2128,2634 2117,2613 2111,2589 2112,2564 2112,2537 2118,2514 2131,2495 2144,2476 2164,2466 2193,2465 2221,2466 2241,2476 2253,2496 2265,2515 2271,2537 2271,2562 2271,2589 2265,2613 2252,2634 2240,2655 2219,2666 2189,2667 Z M 2315,2431 L 2273,2431 2273,2471 2273,2471 C 2264,2456 2253,2444 2238,2437 2224,2429 2208,2425 2191,2425 2159,2426 2134,2433 2116,2448 2097,2463 2084,2481 2076,2503 2068,2525 2064,2547 2064,2569 2064,2607 2074,2639 2095,2666 2115,2692 2146,2706 2187,2707 2204,2707 2221,2703 2237,2694 2252,2686 2264,2674 2272,2657 L 2273,2657 2273,2675 C 2273,2706 2267,2731 2254,2750 2241,2769 2220,2779 2191,2779 2175,2779 2160,2776 2145,2769 2130,2762 2122,2751 2120,2734 L 2075,2734 C 2078,2764 2091,2785 2113,2797 2136,2809 2161,2815 2188,2815 2231,2815 2263,2804 2284,2781 2305,2759 2315,2725 2315,2680 L 2315,2431 Z"/>
       </g>
      </g>
      <g class="com.sun.star.drawing.ClosedBezierShape">
       <g id="id11">
        <path fill="rgb(0,0,0)" stroke="none" d="M 2386,2704 C 2401,2704 2416,2704 2431,2704 2431,2613 2431,2522 2431,2431 2416,2431 2401,2431 2386,2431 2386,2522 2386,2613 2386,2704 Z M 2431,2326 C 2416,2326 2401,2326 2386,2326 2386,2344 2386,2363 2386,2381 2401,2381 2416,2381 2431,2381 2431,2363 2431,2344 2431,2326 Z"/>
       </g>
      </g>
      <g class="com.sun.star.drawing.ClosedBezierShape">
       <g id="id12">
        <path fill="rgb(0,0,0)" stroke="none" d="M 2734,2519 C 2730,2487 2718,2463 2696,2448 2675,2433 2648,2425 2616,2425 2573,2426 2541,2440 2519,2468 2498,2495 2487,2529 2487,2571 2487,2612 2498,2645 2520,2671 2542,2696 2573,2709 2615,2710 2650,2710 2677,2700 2698,2682 2718,2663 2731,2637 2736,2604 L 2690,2604 C 2687,2625 2679,2641 2666,2652 2654,2664 2636,2670 2615,2670 2586,2669 2566,2659 2553,2639 2541,2620 2535,2597 2535,2571 2534,2542 2540,2518 2553,2497 2566,2477 2588,2466 2620,2465 2639,2465 2654,2470 2665,2479 2677,2488 2684,2502 2688,2519 L 2734,2519 Z"/>
       </g>
      </g>
      <g class="com.sun.star.drawing.ClosedBezierShape">
       <g id="id13">
        <path fill="rgb(0,0,0)" stroke="none" d="M 2934,2704 L 2979,2704 2979,2550 C 2979,2525 2986,2505 2999,2489 3012,2473 3033,2465 3060,2465 3077,2465 3090,2470 3100,2480 3110,2490 3115,2503 3115,2520 L 3115,2704 3160,2704 3160,2525 C 3161,2495 3154,2471 3140,2453 3126,2435 3101,2426 3066,2425 3046,2425 3029,2429 3014,2437 2999,2445 2987,2458 2977,2475 L 2976,2475 2976,2431 2934,2431 2934,2704 Z"/>
       </g>
      </g>
      <g class="com.sun.star.drawing.ClosedBezierShape">
       <g id="id14">
        <path fill="rgb(0,0,0)" stroke="none" d="M 3457,2431 L 3412,2431 3412,2585 C 3412,2610 3405,2630 3392,2646 3379,2662 3358,2670 3331,2670 3314,2670 3301,2665 3291,2655 3281,2645 3276,2632 3276,2615 L 3276,2431 3231,2431 3231,2610 C 3230,2640 3237,2664 3251,2682 3265,2700 3290,2709 3325,2710 3345,2710 3362,2706 3377,2698 3392,2690 3404,2677 3414,2660 L 3415,2660 3415,2704 3457,2704 3457,2431 Z"/>
       </g>
      </g>
      <g class="com.sun.star.drawing.ClosedBezierShape">
       <g id="id15">
        <path fill="rgb(0,0,0)" stroke="none" d="M 3527,2704 L 3572,2704 3572,2534 C 3572,2522 3577,2508 3588,2492 3600,2475 3618,2466 3645,2465 3665,2465 3678,2471 3685,2482 3693,2493 3696,2507 3696,2525 L 3696,2704 3741,2704 3741,2534 C 3741,2513 3748,2496 3760,2484 3773,2471 3790,2465 3812,2465 3834,2465 3848,2471 3855,2482 3862,2494 3866,2508 3865,2525 L 3865,2704 3910,2704 3910,2504 C 3910,2476 3901,2456 3885,2444 3869,2431 3847,2425 3819,2425 3801,2425 3785,2429 3770,2438 3755,2446 3743,2457 3734,2472 3728,2455 3718,2443 3704,2436 3691,2429 3676,2425 3659,2425 3640,2425 3623,2429 3608,2437 3593,2445 3580,2456 3570,2472 L 3569,2472 3569,2431 3527,2431 3527,2704 Z"/>
       </g>
      </g>
      <g class="com.sun.star.drawing.ClosedBezierShape">
       <g id="id16">
        <path fill="rgb(0,0,0)" stroke="none" d="M 4193,2565 C 4194,2593 4188,2617 4175,2638 4163,2658 4141,2669 4111,2670 4080,2669 4058,2659 4044,2639 4031,2619 4024,2595 4024,2567 4024,2541 4030,2517 4044,2497 4057,2477 4078,2466 4108,2465 4137,2466 4159,2476 4173,2496 4186,2516 4193,2539 4193,2565 Z M 3981,2704 L 4026,2704 4026,2667 4027,2667 C 4038,2683 4052,2694 4068,2701 4085,2707 4101,2710 4116,2710 4158,2709 4189,2695 4210,2668 4230,2641 4241,2608 4241,2568 4241,2529 4230,2495 4209,2468 4188,2441 4157,2426 4115,2425 4095,2425 4078,2429 4062,2436 4047,2443 4035,2454 4027,2469 L 4026,2469 4026,2326 3981,2326 3981,2704 Z"/>
       </g>
      </g>
      <g class="com.sun.star.drawing.ClosedBezierShape">
       <g id="id17">
        <path fill="rgb(0,0,0)" stroke="none" d="M 4482,2617 C 4478,2635 4470,2648 4458,2657 4445,2666 4430,2670 4411,2670 4381,2669 4359,2660 4345,2643 4331,2626 4325,2605 4326,2581 L 4531,2581 C 4532,2558 4529,2535 4521,2511 4514,2487 4501,2467 4483,2451 4464,2434 4439,2426 4407,2425 4369,2426 4338,2439 4315,2465 4291,2491 4279,2525 4278,2567 4279,2609 4291,2643 4312,2669 4333,2696 4366,2709 4410,2710 4441,2710 4466,2702 4487,2686 4507,2670 4520,2647 4527,2617 L 4482,2617 Z M 4326,2541 C 4328,2520 4335,2502 4349,2488 4362,2473 4381,2465 4404,2465 4427,2465 4445,2473 4460,2487 4474,2501 4482,2519 4483,2541 L 4326,2541 Z"/>
       </g>
      </g>
      <g class="com.sun.star.drawing.ClosedBezierShape">
       <g id="id18">
        <path fill="rgb(0,0,0)" stroke="none" d="M 4575,2704 L 4620,2704 4620,2583 C 4620,2548 4627,2521 4642,2502 4657,2483 4683,2473 4719,2473 L 4719,2425 C 4695,2424 4675,2429 4658,2440 4642,2451 4629,2467 4618,2489 L 4617,2489 4617,2431 4575,2431 4575,2704 Z"/>
       </g>
      </g>
     </g>
     <g class="Group">
      <g class="com.sun.star.drawing.ClosedBezierShape">
       <g id="id19">
        <path fill="rgb(225,224,255)" stroke="none" d="M 1000,6000 C 1000,5167 1000,4333 1000,3500 4500,3500 8000,3500 11500,3500 11500,4333 11500,5167 11500,6000 8000,6000 4500,6000 1000,6000 Z"/>
        <path fill="none" stroke="rgb(0,0,0)" stroke-width="50" stroke-linejoin="round" d="M 1000,6000 C 1000,5167 1000,4333 1000,3500 4500,3500 8000,3500 11500,3500 11500,4333 11500,5167 11500,6000 8000,6000 4500,6000 1000,6000 Z"/>
       </g>
      </g>
      <g class="com.sun.star.drawing.ClosedBezierShape">
       <g id="id20">
        <path fill="rgb(0,0,0)" stroke="none" d="M 1344,4204 C 1361,4204 1377,4204 1394,4204 1394,4078 1394,3952 1394,3826 1377,3826 1361,3826 1344,3826 1344,3952 1344,4078 1344,4204 Z"/>
       </g>
      </g>
      <g class="com.sun.star.drawing.ClosedBezierShape">
       <g id="id21">
        <path fill="rgb(0,0,0)" stroke="none" d="M 1476,4204 C 1493,4204 1509,4204 1526,4204 1526,4146 1526,4089 1526,4031 1593,4031 1659,4031 1726,4031 1726,4089 1726,4146 1726,4204 1743,4204 1759,4204 1776,4204 1776,4078 1776,3952 1776,3826 1759,3826 1743,3826 1726,3826 1726,3880 1726,3935 1726,3989 1659,3989 1593,3989 1526,3989 1526,3935 1526,3880 1526,3826 1509,3826 1493,3826 1476,3826 1476,3952 1476,4078 1476,4204 Z"/>
       </g>
      </g>
      <g class="com.sun.star.drawing.ClosedBezierShape">
       <g id="id22">
        <path fill="rgb(0,0,0)" stroke="none" d="M 1857,4204 L 1987,4204 C 2049,4204 2095,4186 2125,4153 2154,4119 2168,4070 2168,4006 2168,3945 2152,3900 2121,3870 2090,3841 2045,3826 1987,3826 L 1857,3826 1857,4204 Z M 1907,3868 L 1992,3868 C 2038,3868 2070,3881 2090,3907 2109,3932 2119,3967 2118,4013 2117,4059 2109,4092 2093,4114 2077,4135 2059,4149 2039,4154 2019,4160 2003,4163 1991,4162 L 1907,4162 1907,3868 Z"/>
       </g>
      </g>
      <g class="com.sun.star.drawing.ClosedBezierShape">
       <g id="id23">
        <path fill="rgb(0,0,0)" stroke="none" d="M 2280,4000 L 2280,3868 2405,3868 C 2429,3868 2446,3874 2457,3886 2468,3898 2473,3914 2473,3933 2472,3960 2464,3978 2447,3987 2430,3996 2410,4001 2385,4000 L 2280,4000 Z M 2230,4204 L 2280,4204 2280,4042 2403,4042 C 2427,4042 2443,4049 2451,4062 2459,4075 2464,4091 2466,4110 2469,4130 2471,4148 2470,4165 2470,4183 2474,4196 2480,4204 L 2536,4204 C 2526,4191 2520,4174 2518,4156 2516,4137 2515,4118 2514,4099 2513,4080 2508,4064 2501,4050 2493,4035 2479,4026 2457,4022 L 2457,4020 C 2480,4014 2497,4002 2507,3985 2518,3968 2523,3948 2523,3925 2523,3894 2512,3870 2492,3853 2472,3835 2444,3826 2408,3826 L 2230,3826 2230,4204 Z"/>
       </g>
      </g>
     </g>
     <g class="Group">
      <g class="com.sun.star.drawing.ClosedBezierShape">
       <g id="id24">
        <path fill="rgb(225,224,255)" stroke="none" d="M 1000,19750 C 1000,15333 1000,10917 1000,6500 4500,6500 8000,6500 11500,6500 11500,10917 11500,15333 11500,19750 8000,19750 4500,19750 1000,19750 Z"/>
        <path fill="none" stroke="rgb(0,0,0)" stroke-width="50" stroke-linejoin="round" d="M 1000,19750 C 1000,15333 1000,10917 1000,6500 4500,6500 8000,6500 11500,6500 11500,10917 11500,15333 11500,19750 8000,19750 4500,19750 1000,19750 Z"/>
       </g>
      </g>
      <g class="com.sun.star.drawing.ClosedBezierShape">
       <g id="id25">
        <path fill="rgb(0,0,0)" stroke="none" d="M 1344,7204 C 1361,7204 1377,7204 1394,7204 1394,7078 1394,6952 1394,6826 1377,6826 1361,6826 1344,6826 1344,6952 1344,7078 1344,7204 Z"/>
       </g>
      </g>
      <g class="com.sun.star.drawing.ClosedBezierShape">
       <g id="id26">
        <path fill="rgb(0,0,0)" stroke="none" d="M 1476,7204 L 1606,7204 C 1668,7204 1714,7186 1744,7153 1773,7119 1787,7070 1787,7006 1787,6945 1771,6900 1740,6870 1709,6841 1664,6826 1606,6826 L 1476,6826 1476,7204 Z M 1526,6868 L 1611,6868 C 1657,6868 1689,6881 1709,6907 1728,6932 1738,6967 1737,7013 1736,7059 1728,7092 1712,7114 1696,7135 1678,7149 1658,7154 1638,7160 1622,7163 1610,7162 L 1526,7162 1526,6868 Z"/>
       </g>
      </g>
      <g class="com.sun.star.drawing.ClosedBezierShape">
       <g id="id27">
        <path fill="rgb(0,0,0)" stroke="none" d="M 1804,7204 C 1821,7204 1839,7204 1856,7204 1870,7166 1884,7128 1898,7090 1952,7090 2005,7090 2058,7090 2072,7128 2086,7166 2099,7204 2118,7204 2136,7204 2155,7204 2106,7078 2056,6952 2007,6826 1989,6826 1970,6826 1952,6826 1903,6952 1853,7078 1804,7204 Z M 1978,6872 C 1979,6872 1979,6872 1979,6872 2000,6930 2021,6989 2042,7048 2000,7048 1957,7048 1914,7048 1936,6989 1957,6930 1978,6872 Z"/>
       </g>
      </g>
      <g class="com.sun.star.drawing.ClosedBezierShape">
       <g id="id28">
        <path fill="rgb(0,0,0)" stroke="none" d="M 2227,7204 C 2244,7204 2260,7204 2277,7204 2277,7092 2277,6980 2277,6868 2319,6868 2361,6868 2403,6868 2403,6854 2403,6840 2403,6826 2302,6826 2202,6826 2101,6826 2101,6840 2101,6854 2101,6868 2143,6868 2185,6868 2227,6868 2227,6980 2227,7092 2227,7204 Z"/>
       </g>
      </g>
     </g>
     <g class="Group">
      <g class="com.sun.star.drawing.ClosedBezierShape">
       <g id="id29">
        <path fill="rgb(225,224,255)" stroke="none" d="M 1000,21250 C 1000,20917 1000,20583 1000,20250 4500,20250 8000,20250 11500,20250 11500,20583 11500,20917 11500,21250 8000,21250 4500,21250 1000,21250 Z"/>
        <path fill="none" stroke="rgb(0,0,0)" stroke-width="50" stroke-linejoin="round" d="M 1000,21250 C 1000,20917 1000,20583 1000,20250 4500,20250 8000,20250 11500,20250 11500,20583 11500,20917 11500,21250 8000,21250 4500,21250 1000,21250 Z"/>
       </g>
      </g>
      <g class="com.sun.star.drawing.ClosedBezierShape">
       <g id="id30">
        <path fill="rgb(0,0,0)" stroke="none" d="M 1344,20954 C 1361,20954 1377,20954 1394,20954 1394,20828 1394,20702 1394,20576 1377,20576 1361,20576 1344,20576 1344,20702 1344,20828 1344,20954 Z"/>
       </g>
      </g>
      <g class="com.sun.star.drawing.ClosedBezierShape">
       <g id="id31">
        <path fill="rgb(0,0,0)" stroke="none" d="M 1476,20954 C 1563,20954 1651,20954 1738,20954 1738,20940 1738,20926 1738,20912 1667,20912 1597,20912 1526,20912 1526,20868 1526,20825 1526,20781 1591,20781 1657,20781 1722,20781 1722,20767 1722,20753 1722,20739 1657,20739 1591,20739 1526,20739 1526,20699 1526,20658 1526,20618 1596,20618 1666,20618 1736,20618 1736,20604 1736,20590 1736,20576 1650,20576 1563,20576 1476,20576 1476,20702 1476,20828 1476,20954 Z"/>
       </g>
      </g>
      <g class="com.sun.star.drawing.ClosedBezierShape">
       <g id="id32">
        <path fill="rgb(0,0,0)" stroke="none" d="M 1798,20954 C 1814,20954 1830,20954 1846,20954 1846,20853 1846,20752 1846,20651 1846,20651 1847,20651 1847,20651 1913,20752 1978,20853 2044,20954 2062,20954 2080,20954 2099,20954 2099,20828 2099,20702 2099,20576 2083,20576 2067,20576 2051,20576 2051,20678 2051,20780 2051,20882 2051,20882 2050,20882 2050,20882 1984,20780 1918,20678 1852,20576 1834,20576 1816,20576 1798,20576 1798,20702 1798,20828 1798,20954 Z"/>
       </g>
      </g>
      <g class="com.sun.star.drawing.ClosedBezierShape">
       <g id="id33">
        <path fill="rgb(0,0,0)" stroke="none" d="M 2179,20954 L 2309,20954 C 2371,20954 2417,20936 2447,20903 2476,20869 2490,20820 2490,20756 2490,20695 2474,20650 2443,20620 2412,20591 2367,20576 2309,20576 L 2179,20576 2179,20954 Z M 2229,20618 L 2314,20618 C 2360,20618 2392,20631 2412,20657 2431,20682 2441,20717 2440,20763 2439,20809 2431,20842 2415,20864 2399,20885 2381,20899 2361,20904 2341,20910 2325,20913 2313,20912 L 2229,20912 2229,20618 Z"/>
       </g>
      </g>
     </g>
     <g class="Group">
      <g class="com.sun.star.drawing.ClosedBezierShape">
       <g id="id34">
        <path fill="rgb(255,253,189)" stroke="none" d="M 1500,19250 C 1500,15333 1500,11417 1500,7500 4667,7500 7833,7500 11000,7500 11000,11417 11000,15333 11000,19250 7833,19250 4667,19250 1500,19250 Z"/>
        <path fill="none" stroke="rgb(0,0,0)" stroke-width="50" stroke-linejoin="round" d="M 1500,19250 C 1500,15333 1500,11417 1500,7500 4667,7500 7833,7500 11000,7500 11000,11417 11000,15333 11000,19250 7833,19250 4667,19250 1500,19250 Z"/>
       </g>
      </g>
      <g class="com.sun.star.drawing.ClosedBezierShape">
       <g id="id35">
        <path fill="rgb(0,0,0)" stroke="none" d="M 1811,8204 C 1888,8204 1965,8204 2042,8204 2042,8191 2042,8177 2042,8164 1984,8164 1925,8164 1867,8164 1923,8097 1979,8029 2035,7962 2035,7952 2035,7941 2035,7931 1964,7931 1893,7931 1822,7931 1822,7944 1822,7958 1822,7971 1874,7971 1925,7971 1977,7971 1922,8037 1867,8103 1812,8169 1811,8181 1811,8192 1811,8204 Z"/>
       </g>
      </g>
      <g class="com.sun.star.drawing.ClosedBezierShape">
       <g id="id36">
        <path fill="rgb(0,0,0)" stroke="none" d="M 2090,8204 C 2105,8204 2120,8204 2135,8204 2135,8078 2135,7952 2135,7826 2120,7826 2105,7826 2090,7826 2090,7952 2090,8078 2090,8204 Z"/>
       </g>
      </g>
      <g class="com.sun.star.drawing.ClosedBezierShape">
       <g id="id37">
        <path fill="rgb(0,0,0)" stroke="none" d="M 2209,8204 C 2224,8204 2239,8204 2254,8204 2254,8113 2254,8022 2254,7931 2239,7931 2224,7931 2209,7931 2209,8022 2209,8113 2209,8204 Z M 2254,7826 C 2239,7826 2224,7826 2209,7826 2209,7844 2209,7863 2209,7881 2224,7881 2239,7881 2254,7881 2254,7863 2254,7844 2254,7826 Z"/>
       </g>
      </g>
      <g class="com.sun.star.drawing.ClosedBezierShape">
       <g id="id38">
        <path fill="rgb(0,0,0)" stroke="none" d="M 2538,8065 C 2539,8093 2533,8117 2520,8138 2508,8158 2486,8169 2456,8170 2425,8169 2403,8159 2389,8139 2376,8119 2369,8095 2369,8067 2369,8041 2375,8017 2389,7997 2402,7977 2423,7966 2453,7965 2482,7966 2504,7976 2518,7996 2531,8016 2538,8039 2538,8065 Z M 2326,8204 L 2371,8204 2371,8167 2372,8167 C 2383,8183 2397,8194 2413,8201 2430,8207 2446,8210 2461,8210 2503,8209 2534,8195 2555,8168 2575,8141 2586,8108 2586,8068 2586,8029 2575,7995 2554,7968 2533,7941 2502,7926 2460,7925 2440,7925 2423,7929 2407,7936 2392,7943 2380,7954 2372,7969 L 2371,7969 2371,7826 2326,7826 2326,8204 Z"/>
       </g>
      </g>
     </g>
     <g class="Group">
      <g class="com.sun.star.drawing.ClosedBezierShape">
       <g id="id39">
        <path fill="rgb(255,253,189)" stroke="none" d="M 1750,9500 C 1750,9167 1750,8833 1750,8500 4750,8500 7750,8500 10750,8500 10750,8833 10750,9167 10750,9500 7750,9500 4750,9500 1750,9500 Z"/>
        <path fill="none" stroke="rgb(0,0,0)" stroke-width="50" stroke-linejoin="round" d="M 1750,9500 C 1750,9167 1750,8833 1750,8500 4750,8500 7750,8500 10750,8500 10750,8833 10750,9167 10750,9500 7750,9500 4750,9500 1750,9500 Z"/>
       </g>
      </g>
      <g class="com.sun.star.drawing.ClosedBezierShape">
       <g id="id40">
        <path fill="rgb(0,0,0)" stroke="none" d="M 2091,9204 C 2108,9204 2124,9204 2141,9204 2141,9146 2141,9089 2141,9031 2208,9031 2274,9031 2341,9031 2341,9089 2341,9146 2341,9204 2358,9204 2374,9204 2391,9204 2391,9078 2391,8952 2391,8826 2374,8826 2358,8826 2341,8826 2341,8880 2341,8935 2341,8989 2274,8989 2208,8989 2141,8989 2141,8935 2141,8880 2141,8826 2124,8826 2108,8826 2091,8826 2091,8952 2091,9078 2091,9204 Z"/>
       </g>
      </g>
      <g class="com.sun.star.drawing.ClosedBezierShape">
       <g id="id41">
        <path fill="rgb(0,0,0)" stroke="none" d="M 2654,9117 C 2650,9135 2642,9148 2630,9157 2617,9166 2602,9170 2583,9170 2553,9169 2531,9160 2517,9143 2503,9126 2497,9105 2498,9081 L 2703,9081 C 2704,9058 2701,9035 2693,9011 2686,8987 2673,8967 2655,8951 2636,8934 2611,8926 2579,8925 2541,8926 2510,8939 2487,8965 2463,8991 2451,9025 2450,9067 2451,9109 2463,9143 2484,9169 2505,9196 2538,9209 2582,9210 2613,9210 2638,9202 2659,9186 2679,9170 2692,9147 2699,9117 L 2654,9117 Z M 2498,9041 C 2500,9020 2507,9002 2521,8988 2534,8973 2553,8965 2576,8965 2599,8965 2617,8973 2632,8987 2646,9001 2654,9019 2655,9041 L 2498,9041 Z"/>
       </g>
      </g>
      <g class="com.sun.star.drawing.ClosedBezierShape">
       <g id="id42">
        <path fill="rgb(0,0,0)" stroke="none" d="M 2918,9109 C 2918,9122 2912,9135 2899,9149 2885,9162 2864,9169 2835,9170 2820,9170 2808,9167 2798,9161 2788,9155 2782,9145 2782,9130 2782,9114 2788,9102 2798,9095 2809,9088 2822,9084 2837,9081 2852,9079 2867,9077 2882,9075 2897,9073 2909,9069 2918,9063 L 2918,9109 Z M 2991,9168 C 2988,9169 2986,9169 2983,9170 2981,9170 2979,9170 2977,9170 2970,9170 2966,9168 2965,9163 2963,9158 2963,9150 2963,9140 L 2963,9000 C 2962,8969 2951,8949 2930,8939 2909,8929 2886,8924 2861,8925 2829,8925 2803,8932 2781,8946 2759,8960 2747,8983 2745,9017 L 2790,9017 C 2791,8997 2798,8983 2811,8976 2823,8968 2839,8964 2858,8965 2873,8964 2887,8967 2899,8973 2911,8979 2918,8991 2919,9010 2918,9026 2909,9036 2891,9040 2874,9043 2852,9047 2827,9051 2803,9053 2781,9060 2763,9071 2745,9083 2735,9103 2734,9133 2735,9160 2744,9180 2761,9192 2778,9204 2799,9210 2825,9210 2844,9210 2861,9206 2878,9200 2894,9193 2908,9182 2921,9168 2921,9182 2924,9193 2931,9200 2938,9207 2947,9210 2959,9210 2966,9210 2972,9209 2977,9208 2982,9207 2987,9205 2991,9202 L 2991,9168 Z"/>
       </g>
      </g>
      <g class="com.sun.star.drawing.ClosedBezierShape">
       <g id="id43">
        <path fill="rgb(0,0,0)" stroke="none" d="M 3276,8826 L 3231,8826 3231,8968 3230,8968 C 3219,8952 3206,8941 3189,8934 3172,8928 3157,8925 3142,8925 3100,8926 3069,8940 3048,8967 3028,8994 3017,9027 3017,9067 3017,9106 3028,9140 3049,9167 3070,9194 3101,9209 3143,9210 3162,9210 3179,9206 3195,9199 3211,9192 3222,9181 3230,9166 L 3231,9166 3231,9204 3276,9204 3276,8826 Z M 3065,9070 C 3064,9042 3070,9018 3083,8997 3095,8977 3116,8966 3147,8965 3177,8966 3199,8976 3213,8996 3226,9016 3233,9040 3233,9068 3233,9094 3227,9118 3214,9138 3200,9158 3179,9169 3149,9170 3120,9169 3099,9159 3085,9139 3072,9119 3065,9096 3065,9070 Z"/>
       </g>
      </g>
      <g class="com.sun.star.drawing.ClosedBezierShape">
       <g id="id44">
        <path fill="rgb(0,0,0)" stroke="none" d="M 3535,9117 C 3531,9135 3523,9148 3511,9157 3498,9166 3483,9170 3464,9170 3434,9169 3412,9160 3398,9143 3384,9126 3378,9105 3379,9081 L 3584,9081 C 3585,9058 3582,9035 3574,9011 3567,8987 3554,8967 3536,8951 3517,8934 3492,8926 3460,8925 3422,8926 3391,8939 3368,8965 3344,8991 3332,9025 3331,9067 3332,9109 3344,9143 3365,9169 3387,9196 3419,9209 3463,9210 3494,9210 3519,9202 3540,9186 3560,9170 3573,9147 3580,9117 L 3535,9117 Z M 3379,9041 C 3381,9020 3388,9002 3402,8988 3415,8973 3434,8965 3457,8965 3480,8965 3498,8973 3513,8987 3527,9001 3535,9019 3536,9041 L 3379,9041 Z"/>
       </g>
      </g>
      <g class="com.sun.star.drawing.ClosedBezierShape">
       <g id="id45">
        <path fill="rgb(0,0,0)" stroke="none" d="M 3627,9204 L 3672,9204 3672,9083 C 3672,9048 3679,9021 3694,9002 3709,8983 3735,8973 3771,8973 L 3771,8925 C 3747,8924 3727,8929 3710,8940 3694,8951 3681,8967 3670,8989 L 3669,8989 3669,8931 3627,8931 3627,9204 Z"/>
       </g>
      </g>
     </g>
     <g class="Group">
      <g class="com.sun.star.drawing.ClosedBezierShape">
       <g id="id46">
        <path fill="rgb(255,219,156)" stroke="none" d="M 1750,19000 C 1750,15917 1750,12833 1750,9750 4750,9750 7750,9750 10750,9750 10750,12833 10750,15917 10750,19000 7750,19000 4750,19000 1750,19000 Z"/>
        <path fill="none" stroke="rgb(0,0,0)" stroke-width="50" stroke-linejoin="round" d="M 1750,19000 C 1750,15917 1750,12833 1750,9750 4750,9750 7750,9750 10750,9750 10750,12833 10750,15917 10750,19000 7750,19000 4750,19000 1750,19000 Z"/>
       </g>
      </g>
      <g class="com.sun.star.drawing.ClosedBezierShape">
       <g id="id47">
        <path fill="rgb(0,0,0)" stroke="none" d="M 2091,10454 L 2221,10454 C 2283,10454 2329,10436 2359,10403 2388,10369 2402,10320 2402,10256 2402,10195 2386,10150 2355,10120 2324,10091 2279,10076 2221,10076 L 2091,10076 2091,10454 Z M 2141,10118 L 2226,10118 C 2272,10118 2304,10131 2324,10157 2343,10182 2353,10217 2352,10263 2351,10309 2343,10342 2327,10364 2311,10385 2293,10399 2273,10404 2253,10410 2237,10413 2225,10412 L 2141,10412 2141,10118 Z"/>
       </g>
      </g>
      <g class="com.sun.star.drawing.ClosedBezierShape">
       <g id="id48">
        <path fill="rgb(0,0,0)" stroke="none" d="M 2464,10454 C 2551,10454 2639,10454 2726,10454 2726,10440 2726,10426 2726,10412 2655,10412 2585,10412 2514,10412 2514,10368 2514,10325 2514,10281 2579,10281 2645,10281 2710,10281 2710,10267 2710,10253 2710,10239 2645,10239 2579,10239 2514,10239 2514,10199 2514,10158 2514,10118 2584,10118 2654,10118 2724,10118 2724,10104 2724,10090 2724,10076 2638,10076 2551,10076 2464,10076 2464,10202 2464,10328 2464,10454 Z"/>
       </g>
      </g>
      <g class="com.sun.star.drawing.ClosedBezierShape">
       <g id="id49">
        <path fill="rgb(0,0,0)" stroke="none" d="M 2785,10454 C 2802,10454 2818,10454 2835,10454 2835,10396 2835,10339 2835,10281 2893,10281 2951,10281 3008,10281 3008,10267 3008,10253 3008,10239 2951,10239 2893,10239 2835,10239 2835,10199 2835,10158 2835,10118 2901,10118 2967,10118 3033,10118 3033,10104 3033,10090 3033,10076 2950,10076 2868,10076 2785,10076 2785,10202 2785,10328 2785,10454 Z"/>
       </g>
      </g>
      <g class="com.sun.star.drawing.ClosedBezierShape">
       <g id="id50">
        <path fill="rgb(0,0,0)" stroke="none" d="M 3090,10454 C 3173,10454 3257,10454 3340,10454 3340,10440 3340,10426 3340,10412 3273,10412 3207,10412 3140,10412 3140,10300 3140,10188 3140,10076 3123,10076 3107,10076 3090,10076 3090,10202 3090,10328 3090,10454 Z"/>
       </g>
      </g>
      <g class="com.sun.star.drawing.ClosedBezierShape">
       <g id="id51">
        <path fill="rgb(0,0,0)" stroke="none" d="M 3341,10454 C 3358,10454 3376,10454 3393,10454 3407,10416 3421,10378 3435,10340 3489,10340 3542,10340 3595,10340 3609,10378 3623,10416 3636,10454 3655,10454 3673,10454 3692,10454 3643,10328 3593,10202 3544,10076 3526,10076 3507,10076 3489,10076 3440,10202 3390,10328 3341,10454 Z M 3515,10122 C 3516,10122 3516,10122 3516,10122 3537,10180 3558,10239 3579,10298 3537,10298 3494,10298 3451,10298 3473,10239 3494,10180 3515,10122 Z"/>
       </g>
      </g>
      <g class="com.sun.star.drawing.ClosedBezierShape">
       <g id="id52">
        <path fill="rgb(0,0,0)" stroke="none" d="M 3765,10454 C 3782,10454 3798,10454 3815,10454 3815,10342 3815,10230 3815,10118 3857,10118 3899,10118 3941,10118 3941,10104 3941,10090 3941,10076 3840,10076 3740,10076 3639,10076 3639,10090 3639,10104 3639,10118 3681,10118 3723,10118 3765,10118 3765,10230 3765,10342 3765,10454 Z"/>
       </g>
      </g>
      <g class="com.sun.star.drawing.ClosedBezierShape">
       <g id="id53">
        <path fill="rgb(0,0,0)" stroke="none" d="M 3983,10454 C 4070,10454 4158,10454 4245,10454 4245,10440 4245,10426 4245,10412 4174,10412 4104,10412 4033,10412 4033,10368 4033,10325 4033,10281 4098,10281 4164,10281 4229,10281 4229,10267 4229,10253 4229,10239 4164,10239 4098,10239 4033,10239 4033,10199 4033,10158 4033,10118 4103,10118 4173,10118 4243,10118 4243,10104 4243,10090 4243,10076 4157,10076 4070,10076 3983,10076 3983,10202 3983,10328 3983,10454 Z"/>
       </g>
      </g>
     </g>
     <g class="Group">
      <g class="com.sun.star.drawing.ClosedBezierShape">
       <g id="id54">
        <path fill="rgb(255,219,156)" stroke="none" d="M 2000,13250 C 2000,12417 2000,11583 2000,10750 4833,10750 7667,10750 10500,10750 10500,11583 10500,12417 10500,13250 7667,13250 4833,13250 2000,13250 Z"/>
        <path fill="none" stroke="rgb(0,0,0)" stroke-width="50" stroke-linejoin="round" d="M 2000,13250 C 2000,12417 2000,11583 2000,10750 4833,10750 7667,10750 10500,10750 10500,11583 10500,12417 10500,13250 7667,13250 4833,13250 2000,13250 Z"/>
       </g>
      </g>
      <g class="com.sun.star.drawing.ClosedBezierShape">
       <g id="id55">
        <path fill="rgb(0,0,0)" stroke="none" d="M 2391,11281 L 2506,11281 C 2528,11280 2547,11285 2563,11294 2579,11303 2587,11320 2588,11344 2588,11365 2581,11382 2569,11394 2556,11406 2539,11412 2517,11412 L 2391,11412 2391,11281 Z M 2341,11454 L 2523,11454 C 2561,11453 2590,11442 2609,11421 2628,11400 2638,11375 2638,11346 2638,11322 2632,11302 2620,11286 2607,11270 2590,11260 2566,11255 L 2566,11254 C 2584,11247 2598,11236 2608,11221 2618,11207 2623,11189 2623,11169 2623,11150 2618,11134 2610,11121 2602,11107 2591,11097 2579,11090 2567,11083 2551,11079 2533,11078 2514,11076 2496,11076 2478,11076 L 2341,11076 2341,11454 Z M 2391,11118 L 2492,11118 C 2515,11117 2534,11121 2549,11128 2564,11136 2572,11153 2573,11178 2573,11198 2567,11213 2554,11224 2541,11234 2521,11239 2492,11239 L 2391,11239 2391,11118 Z"/>
       </g>
      </g>
      <g class="com.sun.star.drawing.ClosedBezierShape">
       <g id="id56">
        <path fill="rgb(0,0,0)" stroke="none" d="M 2700,11454 C 2715,11454 2730,11454 2745,11454 2745,11328 2745,11202 2745,11076 2730,11076 2715,11076 2700,11076 2700,11202 2700,11328 2700,11454 Z"/>
       </g>
      </g>
      <g class="com.sun.star.drawing.ClosedBezierShape">
       <g id="id57">
        <path fill="rgb(0,0,0)" stroke="none" d="M 2802,11318 C 2802,11358 2814,11392 2836,11419 2859,11445 2892,11459 2935,11460 2978,11459 3011,11445 3034,11419 3056,11392 3068,11358 3068,11318 3068,11277 3056,11243 3034,11217 3011,11190 2978,11176 2935,11175 2892,11176 2859,11190 2836,11217 2814,11243 2802,11277 2802,11318 Z M 2850,11318 C 2850,11285 2859,11259 2875,11241 2891,11224 2911,11215 2935,11215 2959,11215 2979,11224 2995,11241 3011,11259 3020,11285 3020,11318 3020,11351 3011,11376 2995,11394 2979,11411 2959,11420 2935,11420 2911,11420 2891,11411 2875,11394 2859,11376 2850,11351 2850,11318 Z"/>
       </g>
      </g>
      <g class="com.sun.star.drawing.ClosedBezierShape">
       <g id="id58">
        <path fill="rgb(0,0,0)" stroke="none" d="M 3353,11269 C 3349,11237 3337,11213 3315,11198 3294,11183 3267,11175 3235,11175 3192,11176 3160,11190 3138,11218 3117,11245 3106,11279 3106,11321 3106,11362 3117,11395 3139,11421 3161,11446 3192,11459 3234,11460 3269,11460 3296,11450 3317,11432 3337,11413 3350,11387 3355,11354 L 3309,11354 C 3306,11375 3298,11391 3285,11402 3273,11414 3255,11420 3234,11420 3205,11419 3185,11409 3172,11389 3160,11370 3154,11347 3154,11321 3153,11292 3159,11268 3172,11247 3185,11227 3207,11216 3239,11215 3258,11215 3273,11220 3284,11229 3296,11238 3303,11252 3307,11269 L 3353,11269 Z"/>
       </g>
      </g>
      <g class="com.sun.star.drawing.ClosedBezierShape">
       <g id="id59">
        <path fill="rgb(0,0,0)" stroke="none" d="M 3407,11454 C 3422,11454 3437,11454 3452,11454 3452,11419 3452,11385 3452,11350 3466,11337 3480,11324 3494,11311 3525,11359 3557,11406 3588,11454 3607,11454 3626,11454 3645,11454 3606,11396 3567,11338 3529,11280 3565,11247 3601,11214 3637,11181 3617,11181 3597,11181 3577,11181 3535,11221 3494,11260 3452,11300 3452,11225 3452,11151 3452,11076 3437,11076 3422,11076 3407,11076 3407,11202 3407,11328 3407,11454 Z"/>
       </g>
      </g>
     </g>
     <g class="Group">
      <g class="com.sun.star.drawing.ClosedBezierShape">
       <g id="id60">
        <path fill="rgb(255,219,156)" stroke="none" d="M 2000,16000 C 2000,15167 2000,14333 2000,13500 4833,13500 7667,13500 10500,13500 10500,14333 10500,15167 10500,16000 7667,16000 4833,16000 2000,16000 Z"/>
        <path fill="none" stroke="rgb(0,0,0)" stroke-width="50" stroke-linejoin="round" d="M 2000,16000 C 2000,15167 2000,14333 2000,13500 4833,13500 7667,13500 10500,13500 10500,14333 10500,15167 10500,16000 7667,16000 4833,16000 2000,16000 Z"/>
       </g>
      </g>
      <g class="com.sun.star.drawing.ClosedBezierShape">
       <g id="id61">
        <path fill="rgb(0,0,0)" stroke="none" d="M 2391,14031 L 2506,14031 C 2528,14030 2547,14035 2563,14044 2579,14053 2587,14070 2588,14094 2588,14115 2581,14132 2569,14144 2556,14156 2539,14162 2517,14162 L 2391,14162 2391,14031 Z M 2341,14204 L 2523,14204 C 2561,14203 2590,14192 2609,14171 2628,14150 2638,14125 2638,14096 2638,14072 2632,14052 2620,14036 2607,14020 2590,14010 2566,14005 L 2566,14004 C 2584,13997 2598,13986 2608,13971 2618,13957 2623,13939 2623,13919 2623,13900 2618,13884 2610,13871 2602,13857 2591,13847 2579,13840 2567,13833 2551,13829 2533,13828 2514,13826 2496,13826 2478,13826 L 2341,13826 2341,14204 Z M 2391,13868 L 2492,13868 C 2515,13867 2534,13871 2549,13878 2564,13886 2572,13903 2573,13928 2573,13948 2567,13963 2554,13974 2541,13984 2521,13989 2492,13989 L 2391,13989 2391,13868 Z"/>
       </g>
      </g>
      <g class="com.sun.star.drawing.ClosedBezierShape">
       <g id="id62">
        <path fill="rgb(0,0,0)" stroke="none" d="M 2700,14204 C 2715,14204 2730,14204 2745,14204 2745,14078 2745,13952 2745,13826 2730,13826 2715,13826 2700,13826 2700,13952 2700,14078 2700,14204 Z"/>
       </g>
      </g>
      <g class="com.sun.star.drawing.ClosedBezierShape">
       <g id="id63">
        <path fill="rgb(0,0,0)" stroke="none" d="M 2802,14068 C 2802,14108 2814,14142 2836,14169 2859,14195 2892,14209 2935,14210 2978,14209 3011,14195 3034,14169 3056,14142 3068,14108 3068,14068 3068,14027 3056,13993 3034,13967 3011,13940 2978,13926 2935,13925 2892,13926 2859,13940 2836,13967 2814,13993 2802,14027 2802,14068 Z M 2850,14068 C 2850,14035 2859,14009 2875,13991 2891,13974 2911,13965 2935,13965 2959,13965 2979,13974 2995,13991 3011,14009 3020,14035 3020,14068 3020,14101 3011,14126 2995,14144 2979,14161 2959,14170 2935,14170 2911,14170 2891,14161 2875,14144 2859,14126 2850,14101 2850,14068 Z"/>
       </g>
      </g>
      <g class="com.sun.star.drawing.ClosedBezierShape">
       <g id="id64">
        <path fill="rgb(0,0,0)" stroke="none" d="M 3353,14019 C 3349,13987 3337,13963 3315,13948 3294,13933 3267,13925 3235,13925 3192,13926 3160,13940 3138,13968 3117,13995 3106,14029 3106,14071 3106,14112 3117,14145 3139,14171 3161,14196 3192,14209 3234,14210 3269,14210 3296,14200 3317,14182 3337,14163 3350,14137 3355,14104 L 3309,14104 C 3306,14125 3298,14141 3285,14152 3273,14164 3255,14170 3234,14170 3205,14169 3185,14159 3172,14139 3160,14120 3154,14097 3154,14071 3153,14042 3159,14018 3172,13997 3185,13977 3207,13966 3239,13965 3258,13965 3273,13970 3284,13979 3296,13988 3303,14002 3307,14019 L 3353,14019 Z"/>
       </g>
      </g>
      <g class="com.sun.star.drawing.ClosedBezierShape">
       <g id="id65">
        <path fill="rgb(0,0,0)" stroke="none" d="M 3407,14204 C 3422,14204 3437,14204 3452,14204 3452,14169 3452,14135 3452,14100 3466,14087 3480,14074 3494,14061 3525,14109 3557,14156 3588,14204 3607,14204 3626,14204 3645,14204 3606,14146 3567,14088 3529,14030 3565,13997 3601,13964 3637,13931 3617,13931 3597,13931 3577,13931 3535,13971 3494,14010 3452,14050 3452,13975 3452,13901 3452,13826 3437,13826 3422,13826 3407,13826 3407,13952 3407,14078 3407,14204 Z"/>
       </g>
      </g>
     </g>
     <g class="Group">
      <g class="com.sun.star.drawing.ClosedBezierShape">
       <g id="id66">
        <path fill="rgb(255,219,156)" stroke="none" d="M 2000,18750 C 2000,17917 2000,17083 2000,16250 4833,16250 7667,16250 10500,16250 10500,17083 10500,17917 10500,18750 7667,18750 4833,18750 2000,18750 Z"/>
        <path fill="none" stroke="rgb(0,0,0)" stroke-width="50" stroke-linejoin="round" d="M 2000,18750 C 2000,17917 2000,17083 2000,16250 4833,16250 7667,16250 10500,16250 10500,17083 10500,17917 10500,18750 7667,18750 4833,18750 2000,18750 Z"/>
       </g>
      </g>
      <g class="com.sun.star.drawing.ClosedBezierShape">
       <g id="id67">
        <path fill="rgb(0,0,0)" stroke="none" d="M 2341,16954 C 2358,16954 2374,16954 2391,16954 2391,16896 2391,16839 2391,16781 2449,16781 2507,16781 2564,16781 2564,16767 2564,16753 2564,16739 2507,16739 2449,16739 2391,16739 2391,16699 2391,16658 2391,16618 2457,16618 2523,16618 2589,16618 2589,16604 2589,16590 2589,16576 2506,16576 2424,16576 2341,16576 2341,16702 2341,16828 2341,16954 Z"/>
       </g>
      </g>
      <g class="com.sun.star.drawing.ClosedBezierShape">
       <g id="id68">
        <path fill="rgb(0,0,0)" stroke="none" d="M 2641,16954 C 2656,16954 2671,16954 2686,16954 2686,16863 2686,16772 2686,16681 2671,16681 2656,16681 2641,16681 2641,16772 2641,16863 2641,16954 Z M 2686,16576 C 2671,16576 2656,16576 2641,16576 2641,16594 2641,16613 2641,16631 2656,16631 2671,16631 2686,16631 2686,16613 2686,16594 2686,16576 Z"/>
       </g>
      </g>
      <g class="com.sun.star.drawing.ClosedBezierShape">
       <g id="id69">
        <path fill="rgb(0,0,0)" stroke="none" d="M 2757,16954 L 2802,16954 2802,16800 C 2802,16775 2809,16755 2822,16739 2835,16723 2856,16715 2883,16715 2900,16715 2913,16720 2923,16730 2933,16740 2938,16753 2938,16770 L 2938,16954 2983,16954 2983,16775 C 2984,16745 2977,16721 2963,16703 2949,16685 2924,16676 2889,16675 2869,16675 2852,16679 2837,16687 2822,16695 2810,16708 2800,16725 L 2799,16725 2799,16681 2757,16681 2757,16954 Z"/>
       </g>
      </g>
      <g class="com.sun.star.drawing.ClosedBezierShape">
       <g id="id70">
        <path fill="rgb(0,0,0)" stroke="none" d="M 3223,16859 C 3223,16872 3217,16885 3204,16899 3190,16912 3169,16919 3140,16920 3125,16920 3113,16917 3103,16911 3093,16905 3087,16895 3087,16880 3087,16864 3093,16852 3103,16845 3114,16838 3127,16834 3142,16831 3157,16829 3172,16827 3187,16825 3202,16823 3214,16819 3223,16813 L 3223,16859 Z M 3296,16918 C 3293,16919 3291,16919 3288,16920 3286,16920 3284,16920 3282,16920 3275,16920 3271,16918 3270,16913 3268,16908 3268,16900 3268,16890 L 3268,16750 C 3267,16719 3256,16699 3235,16689 3214,16679 3191,16674 3166,16675 3134,16675 3108,16682 3086,16696 3064,16710 3052,16733 3050,16767 L 3095,16767 C 3096,16747 3103,16733 3116,16726 3128,16718 3144,16714 3163,16715 3178,16714 3192,16717 3204,16723 3216,16729 3223,16741 3224,16760 3223,16776 3214,16786 3196,16790 3179,16793 3157,16797 3132,16801 3108,16803 3086,16810 3068,16821 3050,16833 3040,16853 3039,16883 3040,16910 3049,16930 3066,16942 3083,16954 3104,16960 3130,16960 3149,16960 3166,16956 3183,16950 3199,16943 3213,16932 3226,16918 3226,16932 3229,16943 3236,16950 3243,16957 3252,16960 3264,16960 3271,16960 3277,16959 3282,16958 3287,16957 3292,16955 3296,16952 L 3296,16918 Z"/>
       </g>
      </g>
      <g class="com.sun.star.drawing.ClosedBezierShape">
       <g id="id71">
        <path fill="rgb(0,0,0)" stroke="none" d="M 3339,16954 C 3354,16954 3369,16954 3384,16954 3384,16828 3384,16702 3384,16576 3369,16576 3354,16576 3339,16576 3339,16702 3339,16828 3339,16954 Z"/>
       </g>
      </g>
      <g class="com.sun.star.drawing.ClosedBezierShape">
       <g id="id72">
        <path fill="rgb(0,0,0)" stroke="none" d="M 3817,16815 C 3818,16843 3812,16867 3799,16888 3787,16908 3765,16919 3735,16920 3704,16919 3682,16909 3668,16889 3655,16869 3648,16845 3648,16817 3648,16791 3654,16767 3668,16747 3681,16727 3702,16716 3732,16715 3761,16716 3783,16726 3797,16746 3810,16766 3817,16789 3817,16815 Z M 3605,16954 L 3650,16954 3650,16917 3651,16917 C 3662,16933 3676,16944 3692,16951 3709,16957 3725,16960 3740,16960 3782,16959 3813,16945 3834,16918 3854,16891 3865,16858 3865,16818 3865,16779 3854,16745 3833,16718 3812,16691 3781,16676 3739,16675 3719,16675 3702,16679 3686,16686 3671,16693 3659,16704 3651,16719 L 3650,16719 3650,16576 3605,16576 3605,16954 Z"/>
       </g>
      </g>
      <g class="com.sun.star.drawing.ClosedBezierShape">
       <g id="id73">
        <path fill="rgb(0,0,0)" stroke="none" d="M 3919,16954 C 3934,16954 3949,16954 3964,16954 3964,16828 3964,16702 3964,16576 3949,16576 3934,16576 3919,16576 3919,16702 3919,16828 3919,16954 Z"/>
       </g>
      </g>
      <g class="com.sun.star.drawing.ClosedBezierShape">
       <g id="id74">
        <path fill="rgb(0,0,0)" stroke="none" d="M 4021,16818 C 4021,16858 4033,16892 4055,16919 4078,16945 4111,16959 4154,16960 4197,16959 4230,16945 4253,16919 4275,16892 4287,16858 4287,16818 4287,16777 4275,16743 4253,16717 4230,16690 4197,16676 4154,16675 4111,16676 4078,16690 4055,16717 4033,16743 4021,16777 4021,16818 Z M 4069,16818 C 4069,16785 4078,16759 4094,16741 4110,16724 4130,16715 4154,16715 4178,16715 4198,16724 4214,16741 4230,16759 4239,16785 4239,16818 4239,16851 4230,16876 4214,16894 4198,16911 4178,16920 4154,16920 4130,16920 4110,16911 4094,16894 4078,16876 4069,16851 4069,16818 Z"/>
       </g>
      </g>
      <g class="com.sun.star.drawing.ClosedBezierShape">
       <g id="id75">
        <path fill="rgb(0,0,0)" stroke="none" d="M 4573,16769 C 4569,16737 4557,16713 4535,16698 4514,16683 4487,16675 4455,16675 4412,16676 4380,16690 4358,16718 4337,16745 4326,16779 4326,16821 4326,16862 4337,16895 4359,16921 4381,16946 4412,16959 4454,16960 4489,16960 4516,16950 4537,16932 4557,16913 4570,16887 4575,16854 L 4529,16854 C 4526,16875 4518,16891 4505,16902 4493,16914 4475,16920 4454,16920 4425,16919 4405,16909 4392,16889 4380,16870 4374,16847 4374,16821 4373,16792 4379,16768 4392,16747 4405,16727 4427,16716 4459,16715 4478,16715 4493,16720 4504,16729 4516,16738 4523,16752 4527,16769 L 4573,16769 Z"/>
       </g>
      </g>
      <g class="com.sun.star.drawing.ClosedBezierShape">
       <g id="id76">
        <path fill="rgb(0,0,0)" stroke="none" d="M 4626,16954 C 4641,16954 4656,16954 4671,16954 4671,16919 4671,16885 4671,16850 4685,16837 4699,16824 4713,16811 4744,16859 4776,16906 4807,16954 4826,16954 4845,16954 4864,16954 4825,16896 4786,16838 4748,16780 4784,16747 4820,16714 4856,16681 4836,16681 4816,16681 4796,16681 4754,16721 4713,16760 4671,16800 4671,16725 4671,16651 4671,16576 4656,16576 4641,16576 4626,16576 4626,16702 4626,16828 4626,16954 Z"/>
       </g>
      </g>
     </g>
     <g class="Group">
      <g class="com.sun.star.drawing.ClosedBezierShape">
       <g id="id77">
        <path fill="rgb(225,224,255)" stroke="none" d="M 1500,5500 C 1500,5167 1500,4833 1500,4500 2500,4500 3500,4500 4500,4500 4500,4833 4500,5167 4500,5500 3500,5500 2500,5500 1500,5500 Z"/>
        <path fill="none" stroke="rgb(0,0,0)" stroke-width="50" stroke-linejoin="round" d="M 1500,5500 C 1500,5167 1500,4833 1500,4500 2500,4500 3500,4500 4500,4500 4500,4833 4500,5167 4500,5500 3500,5500 2500,5500 1500,5500 Z"/>
       </g>
      </g>
      <g class="com.sun.star.drawing.ClosedBezierShape">
       <g id="id78">
        <path fill="rgb(0,0,0)" stroke="none" d="M 1727,5034 L 1814,5034 C 1855,5034 1886,5022 1906,5000 1925,4977 1935,4944 1935,4902 1935,4861 1924,4831 1903,4811 1883,4792 1853,4782 1814,4782 L 1727,4782 1727,5034 Z M 1761,4810 L 1817,4810 C 1848,4810 1869,4819 1882,4836 1895,4853 1902,4876 1901,4907 1901,4937 1895,4960 1884,4974 1874,4988 1862,4997 1849,5001 1836,5005 1825,5007 1817,5006 L 1761,5006 1761,4810 Z"/>
       </g>
      </g>
      <g class="com.sun.star.drawing.ClosedBezierShape">
       <g id="id79">
        <path fill="rgb(0,0,0)" stroke="none" d="M 1970,5034 C 1980,5034 1990,5034 2000,5034 2000,4973 2000,4913 2000,4852 1990,4852 1980,4852 1970,4852 1970,4913 1970,4973 1970,5034 Z M 2000,4782 C 1990,4782 1980,4782 1970,4782 1970,4794 1970,4807 1970,4819 1980,4819 1990,4819 2000,4819 2000,4807 2000,4794 2000,4782 Z"/>
       </g>
      </g>
      <g class="com.sun.star.drawing.ClosedBezierShape">
       <g id="id80">
        <path fill="rgb(0,0,0)" stroke="none" d="M 2045,5034 L 2075,5034 2075,4920 C 2075,4913 2078,4903 2086,4892 2093,4881 2106,4875 2124,4874 2137,4874 2146,4878 2151,4885 2156,4893 2158,4902 2158,4914 L 2158,5034 2188,5034 2188,4920 C 2188,4906 2192,4895 2201,4887 2209,4878 2221,4874 2236,4874 2250,4874 2260,4878 2264,4886 2269,4893 2271,4903 2271,4914 L 2271,5034 2301,5034 2301,4900 C 2301,4882 2295,4868 2284,4860 2273,4852 2259,4848 2240,4848 2228,4848 2218,4851 2208,4856 2198,4861 2189,4869 2183,4879 2179,4868 2173,4860 2164,4855 2155,4850 2144,4848 2133,4848 2120,4848 2109,4851 2099,4856 2089,4861 2081,4868 2074,4879 L 2073,4879 2073,4852 2045,4852 2045,5034 Z"/>
       </g>
      </g>
      <g class="com.sun.star.drawing.ClosedBezierShape">
       <g id="id81">
        <path fill="rgb(0,0,0)" stroke="none" d="M 2470,4976 C 2468,4988 2462,4997 2454,5003 2446,5009 2436,5012 2423,5012 2404,5012 2389,5006 2380,4994 2371,4982 2366,4968 2367,4952 L 2503,4952 C 2504,4928 2499,4906 2487,4884 2474,4862 2452,4850 2421,4848 2395,4849 2375,4857 2359,4875 2344,4892 2336,4915 2335,4943 2336,4971 2343,4994 2358,5011 2372,5029 2393,5037 2422,5038 2443,5038 2460,5033 2473,5022 2487,5012 2496,4997 2500,4976 L 2470,4976 Z M 2367,4926 C 2368,4912 2373,4899 2382,4889 2391,4880 2403,4874 2419,4874 2434,4874 2446,4879 2456,4889 2465,4899 2470,4911 2471,4926 L 2367,4926 Z"/>
       </g>
      </g>
      <g class="com.sun.star.drawing.ClosedBezierShape">
       <g id="id82">
        <path fill="rgb(0,0,0)" stroke="none" d="M 2536,5034 L 2566,5034 2566,4931 C 2566,4914 2570,4901 2579,4890 2588,4880 2602,4874 2620,4874 2632,4874 2641,4877 2647,4884 2654,4890 2657,4899 2657,4911 L 2657,5034 2687,5034 2687,4914 C 2687,4894 2683,4878 2674,4866 2664,4854 2648,4848 2624,4848 2611,4848 2600,4851 2590,4856 2579,4861 2571,4870 2565,4881 L 2564,4881 2564,4852 2536,4852 2536,5034 Z"/>
       </g>
      </g>
      <g class="com.sun.star.drawing.ClosedBezierShape">
       <g id="id83">
        <path fill="rgb(0,0,0)" stroke="none" d="M 2719,4977 C 2720,4999 2728,5015 2743,5024 2757,5034 2775,5038 2796,5038 2816,5038 2833,5034 2849,5026 2865,5017 2873,5002 2874,4981 2873,4964 2867,4952 2855,4944 2844,4937 2830,4932 2814,4929 2800,4926 2786,4923 2774,4919 2762,4915 2756,4908 2755,4897 2755,4888 2760,4882 2768,4879 2775,4875 2784,4874 2794,4874 2804,4874 2813,4876 2822,4881 2830,4885 2835,4893 2836,4905 L 2866,4905 C 2864,4883 2857,4868 2843,4860 2829,4852 2812,4848 2791,4848 2775,4848 2759,4852 2745,4860 2731,4868 2724,4881 2723,4899 2724,4916 2730,4928 2742,4936 2754,4943 2767,4948 2783,4951 2798,4954 2812,4957 2824,4962 2835,4966 2842,4974 2842,4985 2841,4996 2836,5003 2827,5007 2818,5011 2808,5012 2798,5012 2785,5012 2774,5010 2765,5004 2755,4999 2750,4990 2749,4977 L 2719,4977 Z"/>
       </g>
      </g>
      <g class="com.sun.star.drawing.ClosedBezierShape">
       <g id="id84">
        <path fill="rgb(0,0,0)" stroke="none" d="M 2909,5034 C 2919,5034 2929,5034 2939,5034 2939,4973 2939,4913 2939,4852 2929,4852 2919,4852 2909,4852 2909,4913 2909,4973 2909,5034 Z M 2939,4782 C 2929,4782 2919,4782 2909,4782 2909,4794 2909,4807 2909,4819 2919,4819 2929,4819 2939,4819 2939,4807 2939,4794 2939,4782 Z"/>
       </g>
      </g>
      <g class="com.sun.star.drawing.ClosedBezierShape">
       <g id="id85">
        <path fill="rgb(0,0,0)" stroke="none" d="M 2975,4943 C 2975,4970 2983,4993 2998,5011 3013,5028 3035,5037 3064,5038 3092,5037 3114,5028 3129,5011 3144,4993 3152,4970 3152,4943 3152,4916 3144,4893 3129,4875 3114,4858 3092,4849 3064,4848 3035,4849 3013,4858 2998,4875 2983,4893 2975,4916 2975,4943 Z M 3007,4943 C 3007,4921 3013,4904 3023,4892 3034,4880 3047,4874 3064,4874 3080,4874 3093,4880 3104,4892 3114,4904 3120,4921 3120,4943 3120,4965 3114,4982 3104,4994 3093,5006 3080,5012 3064,5012 3047,5012 3034,5006 3023,4994 3013,4982 3007,4965 3007,4943 Z"/>
       </g>
      </g>
      <g class="com.sun.star.drawing.ClosedBezierShape">
       <g id="id86">
        <path fill="rgb(0,0,0)" stroke="none" d="M 3188,5034 L 3218,5034 3218,4931 C 3218,4914 3222,4901 3231,4890 3240,4880 3254,4874 3272,4874 3284,4874 3293,4877 3299,4884 3306,4890 3309,4899 3309,4911 L 3309,5034 3339,5034 3339,4914 C 3339,4894 3335,4878 3326,4866 3316,4854 3300,4848 3276,4848 3263,4848 3252,4851 3242,4856 3231,4861 3223,4870 3217,4881 L 3216,4881 3216,4852 3188,4852 3188,5034 Z"/>
       </g>
      </g>
      <g class="com.sun.star.drawing.ClosedBezierShape">
       <g id="id87">
        <path fill="rgb(0,0,0)" stroke="none" d="M 3370,4977 C 3371,4999 3379,5015 3394,5024 3408,5034 3426,5038 3447,5038 3467,5038 3484,5034 3500,5026 3516,5017 3524,5002 3525,4981 3524,4964 3518,4952 3506,4944 3495,4937 3481,4932 3465,4929 3451,4926 3437,4923 3425,4919 3413,4915 3407,4908 3406,4897 3406,4888 3411,4882 3419,4879 3426,4875 3435,4874 3445,4874 3455,4874 3464,4876 3473,4881 3481,4885 3486,4893 3487,4905 L 3517,4905 C 3515,4883 3508,4868 3494,4860 3480,4852 3463,4848 3442,4848 3426,4848 3410,4852 3396,4860 3382,4868 3375,4881 3374,4899 3375,4916 3381,4928 3393,4936 3405,4943 3418,4948 3434,4951 3449,4954 3463,4957 3475,4962 3486,4966 3493,4974 3493,4985 3492,4996 3487,5003 3478,5007 3469,5011 3459,5012 3449,5012 3436,5012 3425,5010 3416,5004 3406,4999 3401,4990 3400,4977 L 3370,4977 Z"/>
       </g>
      </g>
     </g>
     <g class="Group">
      <g class="com.sun.star.drawing.ClosedBezierShape">
       <g id="id88">
        <path fill="rgb(225,224,255)" stroke="none" d="M 4750,5500 C 4750,5167 4750,4833 4750,4500 5750,4500 6750,4500 7750,4500 7750,4833 7750,5167 7750,5500 6750,5500 5750,5500 4750,5500 Z"/>
        <path fill="none" stroke="rgb(0,0,0)" stroke-width="50" stroke-linejoin="round" d="M 4750,5500 C 4750,5167 4750,4833 4750,4500 5750,4500 6750,4500 7750,4500 7750,4833 7750,5167 7750,5500 6750,5500 5750,5500 4750,5500 Z"/>
       </g>
      </g>
      <g class="com.sun.star.drawing.ClosedBezierShape">
       <g id="id89">
        <path fill="rgb(0,0,0)" stroke="none" d="M 5188,4858 C 5184,4831 5172,4810 5153,4797 5134,4783 5111,4776 5085,4776 5046,4777 5016,4790 4996,4815 4975,4840 4965,4871 4965,4909 4965,4946 4975,4977 4994,5002 5013,5026 5043,5039 5082,5040 5114,5040 5139,5031 5158,5013 5176,4996 5188,4971 5191,4939 L 5157,4939 C 5156,4960 5149,4978 5136,4991 5124,5005 5107,5012 5085,5012 5055,5011 5033,5001 5019,4981 5005,4961 4999,4936 4999,4906 4999,4879 5005,4855 5019,4835 5033,4815 5054,4805 5084,4804 5102,4804 5117,4808 5130,4817 5143,4826 5151,4840 5155,4858 L 5188,4858 Z"/>
       </g>
      </g>
      <g class="com.sun.star.drawing.ClosedBezierShape">
       <g id="id90">
        <path fill="rgb(0,0,0)" stroke="none" d="M 5217,4943 C 5217,4970 5225,4993 5240,5011 5255,5028 5277,5037 5306,5038 5334,5037 5356,5028 5371,5011 5386,4993 5394,4970 5394,4943 5394,4916 5386,4893 5371,4875 5356,4858 5334,4849 5306,4848 5277,4849 5255,4858 5240,4875 5225,4893 5217,4916 5217,4943 Z M 5249,4943 C 5249,4921 5255,4904 5265,4892 5276,4880 5289,4874 5306,4874 5322,4874 5335,4880 5346,4892 5356,4904 5362,4921 5362,4943 5362,4965 5356,4982 5346,4994 5335,5006 5322,5012 5306,5012 5289,5012 5276,5006 5265,4994 5255,4982 5249,4965 5249,4943 Z"/>
       </g>
      </g>
      <g class="com.sun.star.drawing.ClosedBezierShape">
       <g id="id91">
        <path fill="rgb(0,0,0)" stroke="none" d="M 5430,5034 L 5460,5034 5460,4920 C 5460,4913 5463,4903 5471,4892 5478,4881 5491,4875 5509,4874 5522,4874 5531,4878 5536,4885 5541,4893 5543,4902 5543,4914 L 5543,5034 5573,5034 5573,4920 C 5573,4906 5577,4895 5586,4887 5594,4878 5606,4874 5621,4874 5635,4874 5645,4878 5649,4886 5654,4893 5656,4903 5656,4914 L 5656,5034 5686,5034 5686,4900 C 5686,4882 5680,4868 5669,4860 5658,4852 5644,4848 5625,4848 5613,4848 5603,4851 5593,4856 5583,4861 5574,4869 5568,4879 5564,4868 5558,4860 5549,4855 5540,4850 5529,4848 5518,4848 5505,4848 5494,4851 5484,4856 5474,4861 5466,4868 5459,4879 L 5458,4879 5458,4852 5430,4852 5430,5034 Z"/>
       </g>
      </g>
      <g class="com.sun.star.drawing.ClosedBezierShape">
       <g id="id92">
        <path fill="rgb(0,0,0)" stroke="none" d="M 5873,4941 C 5873,4960 5869,4976 5861,4990 5853,5004 5839,5011 5818,5012 5798,5011 5783,5004 5774,4991 5765,4978 5761,4961 5761,4943 5761,4925 5765,4909 5774,4896 5782,4882 5797,4875 5817,4874 5836,4875 5850,4882 5859,4895 5869,4908 5873,4924 5873,4941 Z M 5732,5104 L 5762,5104 5762,5010 5763,5010 C 5770,5020 5779,5028 5790,5032 5801,5036 5812,5038 5822,5038 5849,5037 5870,5028 5884,5010 5898,4992 5905,4970 5905,4944 5905,4917 5898,4895 5884,4876 5870,4858 5849,4849 5821,4848 5808,4848 5797,4850 5786,4855 5776,4859 5768,4867 5763,4876 L 5762,4876 5762,4852 5732,4852 5732,5104 Z"/>
       </g>
      </g>
      <g class="com.sun.star.drawing.ClosedBezierShape">
       <g id="id93">
        <path fill="rgb(0,0,0)" stroke="none" d="M 5937,5034 L 5967,5034 5967,4953 C 5967,4930 5972,4912 5982,4899 5992,4887 6009,4880 6033,4880 L 6033,4848 C 6017,4848 6003,4851 5993,4858 5982,4865 5973,4876 5966,4891 L 5965,4891 5965,4852 5937,4852 5937,5034 Z"/>
       </g>
      </g>
      <g class="com.sun.star.drawing.ClosedBezierShape">
       <g id="id94">
        <path fill="rgb(0,0,0)" stroke="none" d="M 6178,4976 C 6176,4988 6170,4997 6162,5003 6154,5009 6144,5012 6131,5012 6112,5012 6097,5006 6088,4994 6079,4982 6074,4968 6075,4952 L 6211,4952 C 6212,4928 6207,4906 6195,4884 6182,4862 6160,4850 6129,4848 6103,4849 6083,4857 6067,4875 6052,4892 6044,4915 6043,4943 6044,4971 6051,4994 6066,5011 6080,5029 6101,5037 6130,5038 6151,5038 6168,5033 6181,5022 6195,5012 6204,4997 6208,4976 L 6178,4976 Z M 6075,4926 C 6076,4912 6081,4899 6090,4889 6099,4880 6111,4874 6127,4874 6142,4874 6154,4879 6164,4889 6173,4899 6178,4911 6179,4926 L 6075,4926 Z"/>
       </g>
      </g>
      <g class="com.sun.star.drawing.ClosedBezierShape">
       <g id="id95">
        <path fill="rgb(0,0,0)" stroke="none" d="M 6231,4977 C 6232,4999 6240,5015 6255,5024 6269,5034 6287,5038 6308,5038 6328,5038 6345,5034 6361,5026 6377,5017 6385,5002 6386,4981 6385,4964 6379,4952 6367,4944 6356,4937 6342,4932 6326,4929 6312,4926 6298,4923 6286,4919 6274,4915 6268,4908 6267,4897 6267,4888 6272,4882 6280,4879 6287,4875 6296,4874 6306,4874 6316,4874 6325,4876 6334,4881 6342,4885 6347,4893 6348,4905 L 6378,4905 C 6376,4883 6369,4868 6355,4860 6341,4852 6324,4848 6303,4848 6287,4848 6271,4852 6257,4860 6243,4868 6236,4881 6235,4899 6236,4916 6242,4928 6254,4936 6266,4943 6279,4948 6295,4951 6310,4954 6324,4957 6336,4962 6347,4966 6354,4974 6354,4985 6353,4996 6348,5003 6339,5007 6330,5011 6320,5012 6310,5012 6297,5012 6286,5010 6277,5004 6267,4999 6262,4990 6261,4977 L 6231,4977 Z"/>
       </g>
      </g>
      <g class="com.sun.star.drawing.ClosedBezierShape">
       <g id="id96">
        <path fill="rgb(0,0,0)" stroke="none" d="M 6409,4977 C 6410,4999 6418,5015 6433,5024 6447,5034 6465,5038 6486,5038 6506,5038 6523,5034 6539,5026 6555,5017 6563,5002 6564,4981 6563,4964 6557,4952 6545,4944 6534,4937 6520,4932 6504,4929 6490,4926 6476,4923 6464,4919 6452,4915 6446,4908 6445,4897 6445,4888 6450,4882 6458,4879 6465,4875 6474,4874 6484,4874 6494,4874 6503,4876 6512,4881 6520,4885 6525,4893 6526,4905 L 6556,4905 C 6554,4883 6547,4868 6533,4860 6519,4852 6502,4848 6481,4848 6465,4848 6449,4852 6435,4860 6421,4868 6414,4881 6413,4899 6414,4916 6420,4928 6432,4936 6444,4943 6457,4948 6473,4951 6488,4954 6502,4957 6514,4962 6525,4966 6532,4974 6532,4985 6531,4996 6526,5003 6517,5007 6508,5011 6498,5012 6488,5012 6475,5012 6464,5010 6455,5004 6445,4999 6440,4990 6439,4977 L 6409,4977 Z"/>
       </g>
      </g>
      <g class="com.sun.star.drawing.ClosedBezierShape">
       <g id="id97">
        <path fill="rgb(0,0,0)" stroke="none" d="M 6600,5034 C 6610,5034 6620,5034 6630,5034 6630,4973 6630,4913 6630,4852 6620,4852 6610,4852 6600,4852 6600,4913 6600,4973 6600,5034 Z M 6630,4782 C 6620,4782 6610,4782 6600,4782 6600,4794 6600,4807 6600,4819 6610,4819 6620,4819 6630,4819 6630,4807 6630,4794 6630,4782 Z"/>
       </g>
      </g>
      <g class="com.sun.star.drawing.ClosedBezierShape">
       <g id="id98">
        <path fill="rgb(0,0,0)" stroke="none" d="M 6665,4943 C 6665,4970 6673,4993 6688,5011 6703,5028 6725,5037 6754,5038 6782,5037 6804,5028 6819,5011 6834,4993 6842,4970 6842,4943 6842,4916 6834,4893 6819,4875 6804,4858 6782,4849 6754,4848 6725,4849 6703,4858 6688,4875 6673,4893 6665,4916 6665,4943 Z M 6697,4943 C 6697,4921 6703,4904 6713,4892 6724,4880 6737,4874 6754,4874 6770,4874 6783,4880 6794,4892 6804,4904 6810,4921 6810,4943 6810,4965 6804,4982 6794,4994 6783,5006 6770,5012 6754,5012 6737,5012 6724,5006 6713,4994 6703,4982 6697,4965 6697,4943 Z"/>
       </g>
      </g>
      <g class="com.sun.star.drawing.ClosedBezierShape">
       <g id="id99">
        <path fill="rgb(0,0,0)" stroke="none" d="M 6878,5034 L 6908,5034 6908,4931 C 6908,4914 6912,4901 6921,4890 6930,4880 6944,4874 6962,4874 6974,4874 6983,4877 6989,4884 6996,4890 6999,4899 6999,4911 L 6999,5034 7029,5034 7029,4914 C 7029,4894 7025,4878 7016,4866 7006,4854 6990,4848 6966,4848 6953,4848 6942,4851 6932,4856 6921,4861 6913,4870 6907,4881 L 6906,4881 6906,4852 6878,4852 6878,5034 Z"/>
       </g>
      </g>
     </g>
     <g class="Group">
      <g class="com.sun.star.drawing.ClosedBezierShape">
       <g id="id100">
        <path fill="rgb(225,224,255)" stroke="none" d="M 8000,5500 C 8000,5167 8000,4833 8000,4500 9000,4500 10000,4500 11000,4500 11000,4833 11000,5167 11000,5500 10000,5500 9000,5500 8000,5500 Z"/>
        <path fill="none" stroke="rgb(0,0,0)" stroke-width="50" stroke-linejoin="round" d="M 8000,5500 C 8000,5167 8000,4833 8000,4500 9000,4500 10000,4500 11000,4500 11000,4833 11000,5167 11000,5500 10000,5500 9000,5500 8000,5500 Z"/>
       </g>
      </g>
      <g class="com.sun.star.drawing.ClosedBezierShape">
       <g id="id101">
        <path fill="rgb(0,0,0)" stroke="none" d="M 8228,5034 C 8239,5034 8249,5034 8260,5034 8260,4964 8260,4894 8260,4824 8260,4824 8260,4824 8261,4824 8287,4894 8313,4964 8339,5034 8349,5034 8358,5034 8368,5034 8394,4964 8420,4894 8446,4824 8447,4824 8447,4824 8447,4824 8447,4894 8447,4964 8447,5034 8458,5034 8468,5034 8479,5034 8479,4950 8479,4866 8479,4782 8464,4782 8448,4782 8433,4782 8406,4853 8380,4923 8353,4994 8327,4923 8300,4853 8274,4782 8259,4782 8243,4782 8228,4782 8228,4866 8228,4950 8228,5034 Z"/>
       </g>
      </g>
      <g class="com.sun.star.drawing.ClosedBezierShape">
       <g id="id102">
        <path fill="rgb(0,0,0)" stroke="none" d="M 8529,5034 C 8539,5034 8549,5034 8559,5034 8559,4973 8559,4913 8559,4852 8549,4852 8539,4852 8529,4852 8529,4913 8529,4973 8529,5034 Z M 8559,4782 C 8549,4782 8539,4782 8529,4782 8529,4794 8529,4807 8529,4819 8539,4819 8549,4819 8559,4819 8559,4807 8559,4794 8559,4782 Z"/>
       </g>
      </g>
      <g class="com.sun.star.drawing.ClosedBezierShape">
       <g id="id103">
        <path fill="rgb(0,0,0)" stroke="none" d="M 8592,4977 C 8593,4999 8601,5015 8616,5024 8630,5034 8648,5038 8669,5038 8689,5038 8706,5034 8722,5026 8738,5017 8746,5002 8747,4981 8746,4964 8740,4952 8728,4944 8717,4937 8703,4932 8687,4929 8673,4926 8659,4923 8647,4919 8635,4915 8629,4908 8628,4897 8628,4888 8633,4882 8641,4879 8648,4875 8657,4874 8667,4874 8677,4874 8686,4876 8695,4881 8703,4885 8708,4893 8709,4905 L 8739,4905 C 8737,4883 8730,4868 8716,4860 8702,4852 8685,4848 8664,4848 8648,4848 8632,4852 8618,4860 8604,4868 8597,4881 8596,4899 8597,4916 8603,4928 8615,4936 8627,4943 8640,4948 8656,4951 8671,4954 8685,4957 8697,4962 8708,4966 8715,4974 8715,4985 8714,4996 8709,5003 8700,5007 8691,5011 8681,5012 8671,5012 8658,5012 8647,5010 8638,5004 8628,4999 8623,4990 8622,4977 L 8592,4977 Z"/>
       </g>
      </g>
      <g class="com.sun.star.drawing.ClosedBezierShape">
       <g id="id104">
        <path fill="rgb(0,0,0)" stroke="none" d="M 8937,4910 C 8934,4889 8926,4873 8912,4863 8897,4853 8879,4848 8858,4848 8829,4849 8808,4858 8793,4876 8779,4894 8772,4917 8772,4945 8772,4973 8779,4995 8794,5012 8808,5029 8830,5037 8858,5038 8881,5038 8899,5032 8912,5019 8926,5007 8935,4990 8938,4968 L 8907,4968 C 8905,4981 8900,4992 8892,5000 8883,5008 8872,5012 8857,5012 8838,5011 8825,5004 8816,4991 8808,4978 8804,4963 8804,4945 8804,4926 8808,4910 8816,4896 8824,4882 8839,4875 8861,4874 8873,4874 8883,4877 8891,4884 8899,4890 8904,4899 8906,4910 L 8937,4910 Z"/>
       </g>
      </g>
      <g class="com.sun.star.drawing.ClosedBezierShape">
       <g id="id105">
        <path fill="rgb(0,0,0)" stroke="none" d="M 9097,4976 C 9095,4988 9089,4997 9081,5003 9073,5009 9063,5012 9050,5012 9031,5012 9016,5006 9007,4994 8998,4982 8993,4968 8994,4952 L 9130,4952 C 9131,4928 9126,4906 9114,4884 9101,4862 9079,4850 9048,4848 9022,4849 9002,4857 8986,4875 8971,4892 8963,4915 8962,4943 8963,4971 8970,4994 8985,5011 8999,5029 9020,5037 9049,5038 9070,5038 9087,5033 9100,5022 9114,5012 9123,4997 9127,4976 L 9097,4976 Z M 8994,4926 C 8995,4912 9000,4899 9009,4889 9018,4880 9030,4874 9046,4874 9061,4874 9073,4879 9083,4889 9092,4899 9097,4911 9098,4926 L 8994,4926 Z"/>
       </g>
      </g>
      <g class="com.sun.star.drawing.ClosedBezierShape">
       <g id="id106">
        <path fill="rgb(0,0,0)" stroke="none" d="M 9164,5034 C 9174,5034 9184,5034 9194,5034 9194,4950 9194,4866 9194,4782 9184,4782 9174,4782 9164,4782 9164,4866 9164,4950 9164,5034 Z"/>
       </g>
      </g>
      <g class="com.sun.star.drawing.ClosedBezierShape">
       <g id="id107">
        <path fill="rgb(0,0,0)" stroke="none" d="M 9240,5034 C 9250,5034 9260,5034 9270,5034 9270,4950 9270,4866 9270,4782 9260,4782 9250,4782 9240,4782 9240,4866 9240,4950 9240,5034 Z"/>
       </g>
      </g>
      <g class="com.sun.star.drawing.ClosedBezierShape">
       <g id="id108">
        <path fill="rgb(0,0,0)" stroke="none" d="M 9428,4971 C 9428,4980 9424,4989 9415,4998 9406,5007 9392,5011 9372,5012 9363,5012 9355,5010 9348,5006 9341,5002 9337,4995 9337,4985 9337,4974 9341,4967 9348,4962 9355,4957 9363,4954 9374,4952 9384,4951 9394,4949 9404,4948 9414,4947 9422,4944 9428,4940 L 9428,4971 Z M 9477,5010 C 9473,5012 9470,5012 9467,5012 9463,5012 9460,5010 9459,5007 9458,5004 9458,4999 9458,4992 L 9458,4898 C 9457,4877 9450,4863 9436,4857 9422,4850 9407,4847 9390,4848 9369,4848 9351,4852 9336,4861 9322,4871 9314,4886 9312,4909 L 9342,4909 C 9343,4895 9347,4886 9356,4881 9364,4876 9375,4874 9388,4874 9398,4874 9407,4875 9415,4879 9424,4883 9428,4892 9428,4904 9428,4915 9422,4921 9410,4924 9398,4926 9384,4929 9367,4931 9351,4934 9337,4939 9324,4946 9312,4954 9306,4967 9305,4987 9306,5005 9311,5018 9323,5026 9334,5034 9348,5038 9366,5038 9378,5038 9390,5036 9401,5031 9412,5027 9421,5020 9430,5010 9430,5020 9432,5027 9437,5031 9441,5036 9447,5038 9455,5038 9460,5038 9464,5038 9467,5037 9471,5036 9474,5035 9477,5033 L 9477,5010 Z"/>
       </g>
      </g>
      <g class="com.sun.star.drawing.ClosedBezierShape">
       <g id="id109">
        <path fill="rgb(0,0,0)" stroke="none" d="M 9506,5034 L 9536,5034 9536,4931 C 9536,4914 9540,4901 9549,4890 9558,4880 9572,4874 9590,4874 9602,4874 9611,4877 9617,4884 9624,4890 9627,4899 9627,4911 L 9627,5034 9657,5034 9657,4914 C 9657,4894 9653,4878 9644,4866 9634,4854 9618,4848 9594,4848 9581,4848 9570,4851 9560,4856 9549,4861 9541,4870 9535,4881 L 9534,4881 9534,4852 9506,4852 9506,5034 Z"/>
       </g>
      </g>
      <g class="com.sun.star.drawing.ClosedBezierShape">
       <g id="id110">
        <path fill="rgb(0,0,0)" stroke="none" d="M 9825,4976 C 9823,4988 9817,4997 9809,5003 9801,5009 9791,5012 9778,5012 9759,5012 9744,5006 9735,4994 9726,4982 9721,4968 9722,4952 L 9858,4952 C 9859,4928 9854,4906 9842,4884 9829,4862 9807,4850 9776,4848 9750,4849 9730,4857 9714,4875 9699,4892 9691,4915 9690,4943 9691,4971 9698,4994 9713,5011 9727,5029 9748,5037 9777,5038 9798,5038 9815,5033 9828,5022 9842,5012 9851,4997 9855,4976 L 9825,4976 Z M 9722,4926 C 9723,4912 9728,4899 9737,4889 9746,4880 9758,4874 9774,4874 9789,4874 9801,4879 9811,4889 9820,4899 9825,4911 9826,4926 L 9722,4926 Z"/>
       </g>
      </g>
      <g class="com.sun.star.drawing.ClosedBezierShape">
       <g id="id111">
        <path fill="rgb(0,0,0)" stroke="none" d="M 9881,4943 C 9881,4970 9889,4993 9904,5011 9919,5028 9941,5037 9970,5038 9998,5037 10020,5028 10035,5011 10050,4993 10058,4970 10058,4943 10058,4916 10050,4893 10035,4875 10020,4858 9998,4849 9970,4848 9941,4849 9919,4858 9904,4875 9889,4893 9881,4916 9881,4943 Z M 9913,4943 C 9913,4921 9919,4904 9929,4892 9940,4880 9953,4874 9970,4874 9986,4874 9999,4880 10010,4892 10020,4904 10026,4921 10026,4943 10026,4965 10020,4982 10010,4994 9999,5006 9986,5012 9970,5012 9953,5012 9940,5006 9929,4994 9919,4982 9913,4965 9913,4943 Z"/>
       </g>
      </g>
      <g class="com.sun.star.drawing.ClosedBezierShape">
       <g id="id112">
        <path fill="rgb(0,0,0)" stroke="none" d="M 10245,4852 L 10215,4852 10215,4955 C 10215,4972 10211,4985 10202,4996 10193,5006 10179,5012 10161,5012 10149,5012 10140,5009 10134,5002 10127,4996 10124,4987 10124,4975 L 10124,4852 10094,4852 10094,4972 C 10094,4992 10098,5008 10107,5020 10117,5032 10133,5038 10157,5038 10170,5038 10181,5035 10191,5030 10202,5025 10210,5016 10216,5005 L 10217,5005 10217,5034 10245,5034 10245,4852 Z"/>
       </g>
      </g>
      <g class="com.sun.star.drawing.ClosedBezierShape">
       <g id="id113">
        <path fill="rgb(0,0,0)" stroke="none" d="M 10277,4977 C 10278,4999 10286,5015 10301,5024 10315,5034 10333,5038 10354,5038 10374,5038 10391,5034 10407,5026 10423,5017 10431,5002 10432,4981 10431,4964 10425,4952 10413,4944 10402,4937 10388,4932 10372,4929 10358,4926 10344,4923 10332,4919 10320,4915 10314,4908 10313,4897 10313,4888 10318,4882 10326,4879 10333,4875 10342,4874 10352,4874 10362,4874 10371,4876 10380,4881 10388,4885 10393,4893 10394,4905 L 10424,4905 C 10422,4883 10415,4868 10401,4860 10387,4852 10370,4848 10349,4848 10333,4848 10317,4852 10303,4860 10289,4868 10282,4881 10281,4899 10282,4916 10288,4928 10300,4936 10312,4943 10325,4948 10341,4951 10356,4954 10370,4957 10382,4962 10393,4966 10400,4974 10400,4985 10399,4996 10394,5003 10385,5007 10376,5011 10366,5012 10356,5012 10343,5012 10332,5010 10323,5004 10313,4999 10308,4990 10307,4977 L 10277,4977 Z"/>
       </g>
      </g>
     </g>
    </g>
   </g>
  </g>
 </g>
</svg>